HIERARCHY
ROOT Hips
{
	OFFSET 0.00000 0.00000 0.00000
	CHANNELS 6 Xposition Yposition Zposition Zrotation Yrotation Xrotation 
	JOINT LHipJoint
	{
		OFFSET 0 0 0
		CHANNELS 3 Zrotation Yrotation Xrotation
		JOINT LeftUpLeg
		{
			OFFSET 1.84395 -1.68683 0.74144
			CHANNELS 3 Zrotation Yrotation Xrotation
			JOINT LeftLeg
			{
				OFFSET 2.27037 -6.23779 0.00000
				CHANNELS 3 Zrotation Yrotation Xrotation
				JOINT LeftFoot
				{
					OFFSET 2.56918 -7.05877 0.00000
					CHANNELS 3 Zrotation Yrotation Xrotation
					JOINT LeftToeBase
					{
						OFFSET 0.22276 -0.61202 1.71784
						CHANNELS 3 Zrotation Yrotation Xrotation
						End Site
						{
							OFFSET 0.00000 -0.00000 0.91613
						}
					}
				}
			}
		}
	}
	JOINT RHipJoint
	{
		OFFSET 0 0 0
		CHANNELS 3 Zrotation Yrotation Xrotation
		JOINT RightUpLeg
		{
			OFFSET -1.76833 -1.68684 0.74144
			CHANNELS 3 Zrotation Yrotation Xrotation
			JOINT RightLeg
			{
				OFFSET -2.49360 -6.85110 0.00000
				CHANNELS 3 Zrotation Yrotation Xrotation
				JOINT RightFoot
				{
					OFFSET -2.55538 -7.02085 0.00000
					CHANNELS 3 Zrotation Yrotation Xrotation
					JOINT RightToeBase
					{
						OFFSET -0.21516 -0.59115 1.68050
						CHANNELS 3 Zrotation Yrotation Xrotation
						End Site
						{
							OFFSET -0.00000 -0.00000 0.89604
						}
					}
				}
			}
		}
	}
	JOINT LowerBack
	{
		OFFSET 0 0 0
		CHANNELS 3 Zrotation Yrotation Xrotation
		JOINT Spine
		{
			OFFSET 0.06382 1.72312 -0.19613
			CHANNELS 3 Zrotation Yrotation Xrotation
			JOINT Spine1
			{
				OFFSET -0.00055 1.73507 0.23859
				CHANNELS 3 Zrotation Yrotation Xrotation
				JOINT Neck
				{
					OFFSET 0 0 0
					CHANNELS 3 Zrotation Yrotation Xrotation
					JOINT Neck1
					{
						OFFSET 0.03638 1.65562 0.09633
						CHANNELS 3 Zrotation Yrotation Xrotation
						JOINT Head
						{
							OFFSET 0.06388 1.62807 -0.32386
							CHANNELS 3 Zrotation Yrotation Xrotation
							End Site
							{
								OFFSET 0.00995 1.67644 -0.12021
							}
						}
					}
				}
				JOINT LeftShoulder
				{
					OFFSET 0 0 0
					CHANNELS 3 Zrotation Yrotation Xrotation
					JOINT LeftArm
					{
						OFFSET 3.09648 1.42991 0.28122
						CHANNELS 3 Zrotation Yrotation Xrotation
						JOINT LeftForeArm
						{
							OFFSET 5.11878 -0.00000 -0.00000
							CHANNELS 3 Zrotation Yrotation Xrotation
							JOINT LeftHand
							{
								OFFSET 3.59971 -0.00000 0.00000
								CHANNELS 3 Zrotation Yrotation Xrotation
								JOINT LeftFingerBase
								{
									OFFSET 0 0 0
									CHANNELS 3 Zrotation Yrotation Xrotation
									JOINT LeftHandIndex1
									{
										OFFSET 0.62877 -0.00000 0.00000
										CHANNELS 3 Zrotation Yrotation Xrotation
										End Site
										{
											OFFSET 0.50693 -0.00000 0.00000
										}
									}
								}
								JOINT LThumb
								{
									OFFSET 0 0 0
									CHANNELS 3 Zrotation Yrotation Xrotation
									End Site
									{
										OFFSET 0.51467 -0.00000 0.51467
									}
								}
							}
						}
					}
				}
				JOINT RightShoulder
				{
					OFFSET 0 0 0
					CHANNELS 3 Zrotation Yrotation Xrotation
					JOINT RightArm
					{
						OFFSET -3.33565 1.14597 0.05047
						CHANNELS 3 Zrotation Yrotation Xrotation
						JOINT RightForeArm
						{
							OFFSET -5.49020 -0.00000 0.00000
							CHANNELS 3 Zrotation Yrotation Xrotation
							JOINT RightHand
							{
								OFFSET -3.20659 -0.00000 -0.00000
								CHANNELS 3 Zrotation Yrotation Xrotation
								JOINT RightFingerBase
								{
									OFFSET 0 0 0
									CHANNELS 3 Zrotation Yrotation Xrotation
									JOINT RightHandIndex1
									{
										OFFSET -0.69188 -0.00000 0.00000
										CHANNELS 3 Zrotation Yrotation Xrotation
										End Site
										{
											OFFSET -0.55781 -0.00000 0.00000
										}
									}
								}
								JOINT RThumb
								{
									OFFSET 0 0 0
									CHANNELS 3 Zrotation Yrotation Xrotation
									End Site
									{
										OFFSET -0.56633 -0.00000 0.56633
									}
								}
							}
						}
					}
				}
			}
		}
	}
}
MOTION
Frames: 16
Frame Time: .0083333
-0.4162 17.5029 7.7444 0 0 0 0 0 0 -21 0 0 0 0 0 0 0 0 0 0 0 0 0 0 21 0 0 0 0 0 0 0 0 0 0 0 0 0 0 0 0 0 0 0 0 0 0 -16 0 0 21 0 0 11 0 0 0 -8 0 0 0 0 0 0 0 0 0 0 0 0 0 0 0 0 0 0 0 0 8 0 0 0 0 0 0 0 0 0 0 0 0 0 0 0 0 0
-0.4162 17.5029 7.7444 -7.1934 -3.8752 7.5168 0.0000 0.0000 0.0000 -21.7358 -35.7331 23.7597 0.0547 -1.5087 -4.1496 -5.2879 40.2417 -35.5925 0.1164 2.1999 6.0586 0.0000 0.0000 0.0000 26.6124 23.0023 7.0690 -0.0113 -0.6851 1.8828 0.2509 -14.3173 -17.2261 -0.0043 0.4214 -1.1579 4.2480 0.5629 0.1828 1.9583 1.1460 -9.2784 -0.3839 0.3050 -9.8991 -11.6493 -12.3584 -0.3600 9.1877 -17.9675 17.1669 3.4160 -8.9029 7.2075 0.0000 0.0000 0.0000 -91.0303 14.4447 22.2903 16.9650 -26.8117 -4.0716 -0.0000 -0.0000 17.2077 -1.4315 -9.7193 0.2417 -7.1250 0.0000 -0.0000 -19.9962 20.4665 12.5158 0.0000 0.0000 0.0000 88.5245 -13.3777 33.7389 -17.9515 28.0950 -4.5264 0.0000 0.0000 28.6128 7.7952 -32.3562 -4.1903 7.1250 -0.0000 -0.0000 43.0646 -56.8491 -14.3078
-0.4183 17.5036 7.7448 -7.2662 -3.8048 7.4636 0.0000 0.0000 0.0000 -21.5976 -35.6525 23.7398 0.0555 -1.5196 -4.1796 -5.3162 40.2294 -35.3736 0.1079 2.1179 5.8315 0.0000 0.0000 0.0000 26.7406 22.9882 7.1334 -0.0113 -0.6861 1.8855 0.2702 -14.4381 -17.1605 -0.0060 0.5021 -1.3797 4.2932 0.5398 0.2054 1.9993 1.1205 -9.2358 -0.3637 0.2918 -9.8663 -11.7805 -12.3752 -0.5065 9.2868 -17.9954 17.2362 3.4499 -8.9109 7.2803 0.0000 0.0000 0.0000 -91.0327 14.9290 27.8738 17.7044 -27.7771 -4.4106 -0.0000 -0.0000 4.0274 9.1589 -6.6616 -1.0715 -7.1250 0.0000 -0.0000 -12.8942 23.2634 6.9242 0.0000 0.0000 0.0000 88.4762 -13.4409 34.9328 -18.3841 28.6462 -4.7319 0.0000 0.0000 27.7444 13.6368 -21.3946 -5.0575 7.1250 -0.0000 -0.0000 39.5106 -47.2256 -2.5611
-0.4190 17.5032 7.7453 -7.2696 -3.7595 7.4554 0.0000 0.0000 0.0000 -21.5626 -35.6179 23.7095 0.0560 -1.5267 -4.1992 -5.3799 40.2840 -35.1385 0.0964 2.0021 5.5114 0.0000 0.0000 0.0000 26.7528 22.9715 7.1386 -0.0113 -0.6873 1.8889 0.2767 -14.4849 -17.1490 -0.0061 0.5035 -1.3836 4.3124 0.5499 0.2022 2.0004 1.1347 -9.2203 -0.3746 0.2979 -9.8463 -11.9907 -12.4061 -0.6449 9.4749 -18.0596 17.3365 3.5182 -8.9351 7.3822 -0.0000 0.0000 0.0000 -91.0086 14.9539 29.4991 18.1224 -28.3136 -4.6071 -0.0000 -0.0000 1.2768 12.4062 -7.8798 -1.7274 -7.1250 0.0000 -0.0000 -10.4634 21.9591 5.8880 -0.0000 0.0000 0.0000 88.4167 -13.4177 36.0190 -18.7688 29.1304 -4.9178 0.0000 0.0000 26.7918 13.8166 -21.8859 -5.2378 7.1250 -0.0000 -0.0000 39.9693 -47.5953 -3.0273
-0.4239 17.5052 7.7510 -7.0987 -3.7377 7.5743 0.0000 0.0000 0.0000 -21.7190 -35.7743 23.6215 0.0552 -1.5166 -4.1715 -5.3974 40.3373 -35.1970 0.0960 1.9982 5.5008 0.0000 0.0000 0.0000 26.5473 23.1227 7.1261 -0.0103 -0.6555 1.8015 0.2862 -14.6187 -17.2478 -0.0045 0.4345 -1.1939 4.1558 0.6203 0.1410 1.8664 1.2134 -9.3819 -0.4353 0.3388 -9.9867 -12.1197 -12.4640 -0.6081 9.6431 -18.1993 17.5793 3.5700 -8.9978 7.5003 -0.0000 0.0000 0.0000 -90.8352 15.0517 30.3560 18.3567 -28.6115 -4.7188 -0.0000 -0.0000 1.0882 12.5900 -8.1598 -1.8157 -7.1250 0.0000 -0.0000 -10.3166 21.6707 5.8715 -0.0000 0.0000 0.0000 88.5357 -13.5000 36.7136 -18.8998 29.2940 -4.9817 0.0000 0.0000 26.1060 13.9977 -21.8325 -5.2967 7.1250 -0.0000 -0.0000 40.0815 -47.5261 -2.9592
-0.4274 17.5075 7.7559 -6.9470 -3.6799 7.6575 0.0000 0.0000 0.0000 -21.8477 -35.8840 23.5349 0.0547 -1.5087 -4.1496 -5.4381 40.3938 -35.1163 0.0900 1.9347 5.3251 0.0000 0.0000 0.0000 26.3687 23.2128 7.1244 -0.0094 -0.6252 1.7180 0.3001 -14.7599 -17.2987 -0.0038 0.3994 -1.0973 4.0209 0.6584 0.0832 1.7615 1.2501 -9.4954 -0.4740 0.3603 -10.0772 -12.2588 -12.5109 -0.6065 9.8207 -18.3154 17.7645 3.6276 -9.0481 7.6054 0.0000 -0.0000 0.0000 -90.7043 15.1010 31.1679 18.5782 -28.8912 -4.8254 -0.0000 -0.0000 0.7392 12.9992 -8.5128 -1.9572 -7.1250 0.0000 -0.0000 -10.0059 21.2988 5.7750 0.0000 -0.0000 0.0000 88.6238 -13.5723 37.4432 -19.1113 29.5567 -5.0856 0.0000 0.0000 25.4456 14.0205 -22.4679 -5.4512 7.1250 -0.0000 -0.0000 40.5145 -48.0316 -3.5927
-0.4308 17.5103 7.7613 -6.7764 -3.6154 7.7520 0.0000 0.0000 0.0000 -21.9976 -36.0130 23.4420 0.0539 -1.4986 -4.1219 -5.4762 40.4493 -35.0488 0.0843 1.8723 5.1527 0.0000 0.0000 0.0000 26.1645 23.3076 7.1194 -0.0084 -0.5903 1.6221 0.3144 -14.9082 -17.3593 -0.0030 0.3536 -0.9716 3.8719 0.6940 0.0163 1.6460 1.2816 -9.6223 -0.5157 0.3797 -10.1778 -12.4862 -12.5908 -0.7015 10.0527 -18.4929 18.1013 3.6973 -9.1235 7.8000 -0.0000 -0.0000 0.0000 -90.5768 15.1140 31.8061 18.6783 -29.0170 -4.8738 -0.0000 -0.0000 0.7824 13.1692 -8.8764 -2.0677 -7.1250 0.0000 -0.0000 -9.8684 20.9245 5.7781 -0.0000 -0.0000 0.0000 88.7412 -13.6334 38.0242 -19.2723 29.7556 -5.1653 0.0000 0.0000 24.9198 14.2246 -22.7460 -5.5979 7.1250 -0.0000 -0.0000 40.8651 -48.2229 -3.8603
-0.4339 17.5131 7.7663 -6.6317 -3.5485 7.8339 0.0000 0.0000 0.0000 -22.1215 -36.1291 23.3619 0.0533 -1.4900 -4.0981 -5.5051 40.4900 -34.9929 0.0793 1.8170 5.0003 0.0000 0.0000 0.0000 25.9942 23.3896 7.1210 -0.0075 -0.5584 1.5344 0.3277 -15.0467 -17.4173 -0.0023 0.3081 -0.8465 3.7473 0.7185 -0.0438 1.5479 1.3007 -9.7350 -0.5516 0.3923 -10.2674 -12.3863 -12.6586 -0.8543 9.8438 -18.5768 18.4462 3.5893 -9.1614 7.9214 0.0000 -0.0000 0.0000 -90.4863 15.0749 32.3844 18.7117 -29.0589 -4.8900 -0.0000 -0.0000 0.9396 13.3630 -8.8964 -2.1039 -7.1250 0.0000 -0.0000 -9.7290 20.8957 5.7005 0.0000 -0.0000 0.0000 88.8671 -13.6590 38.4698 -19.3918 29.9027 -5.2248 0.0000 0.0000 24.5430 14.4230 -22.9291 -5.7218 7.1250 -0.0000 -0.0000 41.1494 -48.3386 -4.0343
-0.4363 17.5152 7.7702 -6.5432 -3.4854 7.8903 0.0000 0.0000 0.0000 -22.1860 -36.2098 23.3037 0.0530 -1.4855 -4.0858 -5.5263 40.5150 -34.9357 0.0751 1.7684 4.8661 0.0000 0.0000 0.0000 25.8959 23.4478 7.1298 -0.0069 -0.5354 1.4712 0.3387 -15.1586 -17.4629 -0.0017 0.2699 -0.7416 3.6743 0.7295 -0.0874 1.4856 1.3071 -9.8161 -0.5773 0.3968 -10.3322 -12.3467 -12.6827 -0.9236 9.7676 -18.6127 18.6309 3.5469 -9.1764 7.9880 0.0000 0.0000 0.0000 -90.4556 14.9562 32.8172 18.6496 -28.9809 -4.8599 -0.0000 -0.0000 1.3264 13.5765 -8.9338 -2.1477 -7.1250 0.0000 -0.0000 -9.5748 20.8483 5.6180 0.0000 0.0000 0.0000 88.9836 -13.6306 38.7983 -19.4757 30.0055 -5.2666 0.0000 0.0000 24.3097 14.5627 -23.0118 -5.7988 7.1250 -0.0000 -0.0000 41.3185 -48.3830 -4.1101
-0.4380 17.5165 7.7727 -6.5235 -3.4327 7.9172 0.0000 0.0000 0.0000 -22.1760 -36.2440 23.2682 0.0531 -1.4863 -4.0881 -5.5401 40.5234 -34.8726 0.0718 1.7283 4.7554 0.0000 0.0000 0.0000 25.8851 23.4829 7.1451 -0.0066 -0.5248 1.4421 0.3459 -15.2341 -17.4979 -0.0014 0.2385 -0.6552 3.6627 0.7285 -0.1109 1.4673 1.3039 -9.8591 -0.5898 0.3944 -10.3667 -12.3431 -12.6679 -0.9486 9.7658 -18.5978 18.7031 3.5448 -9.1675 8.0142 -0.0000 -0.0000 0.0000 -90.4924 14.7552 33.0994 18.5026 -28.7960 -4.7889 -0.0000 -0.0000 1.9531 13.8398 -9.0664 -2.2232 -7.1250 0.0000 -0.0000 -9.3818 20.7018 5.5330 -0.0000 -0.0000 0.0000 89.0779 -13.5367 39.0255 -19.5223 30.0625 -5.2899 0.0000 0.0000 24.2025 14.6365 -23.0106 -5.8290 7.1250 -0.0000 -0.0000 41.3777 -48.3709 -4.1039
-0.4392 17.5168 7.7739 -6.5599 -3.3949 7.9214 0.0000 0.0000 0.0000 -22.1063 -36.2409 23.2518 0.0534 -1.4913 -4.1018 -5.5466 40.5188 -34.8139 0.0696 1.7015 4.6813 0.0000 0.0000 0.0000 25.9451 23.5047 7.1646 -0.0066 -0.5251 1.4430 0.3490 -15.2744 -17.5278 -0.0010 0.2052 -0.5639 3.6984 0.7212 -0.1184 1.4846 1.2975 -9.8708 -0.5904 0.3889 -10.3760 -12.3519 -12.6551 -1.0485 9.7395 -18.5754 18.8098 3.5316 -9.1539 8.0629 -0.0000 -0.0000 0.0000 -90.5858 14.4899 33.2354 18.2813 -28.5158 -4.6827 -0.0000 -0.0000 2.8112 14.1415 -9.3421 -2.3420 -7.1250 0.0000 -0.0000 -9.1571 20.4075 5.4586 -0.0000 -0.0000 0.0000 89.1525 -13.3865 39.1595 -19.5259 30.0670 -5.2918 0.0000 0.0000 24.2052 14.6398 -22.9437 -5.8144 7.1250 -0.0000 -0.0000 41.3349 -48.3173 -4.0343
-0.4402 17.5166 7.7746 -6.6168 -3.3717 7.9218 0.0000 0.0000 0.0000 -22.0181 -36.2285 23.2430 0.0539 -1.4976 -4.1190 -5.5536 40.5185 -34.7660 0.0683 1.6857 4.6378 0.0000 0.0000 0.0000 26.0272 23.5243 7.1785 -0.0067 -0.5301 1.4567 0.3496 -15.2932 -17.5526 -0.0007 0.1700 -0.4670 3.7508 0.7170 -0.1222 1.5120 1.2970 -9.8733 -0.5902 0.3856 -10.3769 -12.3701 -12.6342 -1.1242 9.7449 -18.5456 18.8767 3.5333 -9.1365 8.0973 -0.0000 0.0000 0.0000 -90.7016 14.1983 33.2532 17.9947 -28.1504 -4.5468 -0.0000 -0.0000 3.8804 14.4341 -9.6867 -2.4798 -7.1250 0.0000 -0.0000 -8.9387 20.0422 5.3994 -0.0000 0.0000 0.0000 89.2283 -13.2138 39.1906 -19.4834 30.0150 -5.2705 0.0000 0.0000 24.3051 14.5901 -22.8494 -5.7716 7.1250 -0.0000 -0.0000 41.2310 -48.2501 -3.9406
-0.4411 17.5163 7.7752 -6.6616 -3.3632 7.9341 0.0000 0.0000 0.0000 -21.9495 -36.2295 23.2320 0.0542 -1.5020 -4.1313 -5.5648 40.5333 -34.7408 0.0677 1.6787 4.6185 0.0000 0.0000 0.0000 26.0841 23.5424 7.1707 -0.0069 -0.5364 1.4741 0.3483 -15.2929 -17.5704 -0.0005 0.1402 -0.3852 3.7915 0.7207 -0.1353 1.5314 1.3055 -9.8807 -0.5927 0.3872 -10.3773 -12.3824 -12.6144 -1.1679 9.7665 -18.5215 18.9182 3.5414 -9.1220 8.1193 -0.0000 0.0000 0.0000 -90.8164 13.9070 33.1730 17.6564 -27.7149 -4.3883 -0.0000 -0.0000 5.1258 14.6485 -9.9869 -2.5954 -7.1250 0.0000 -0.0000 -8.7788 19.7250 5.3635 -0.0000 0.0000 0.0000 89.3176 -13.0411 39.1110 -19.3979 29.9101 -5.2278 0.0000 0.0000 24.4906 14.5558 -22.7750 -5.7399 7.1250 -0.0000 -0.0000 41.1532 -48.1962 -3.8664
-0.4419 17.5158 7.7759 -6.6874 -3.3701 7.9607 0.0000 0.0000 0.0000 -21.9082 -36.2476 23.2167 0.0543 -1.5043 -4.1376 -5.5776 40.5605 -34.7464 0.0678 1.6797 4.6214 0.0000 0.0000 0.0000 26.1037 23.5526 7.1324 -0.0071 -0.5442 1.4954 0.3448 -15.2692 -17.5771 -0.0004 0.1257 -0.3455 3.8136 0.7313 -0.1601 1.5406 1.3210 -9.8938 -0.5960 0.3932 -10.3767 -12.3857 -12.5991 -1.1896 9.7926 -18.5061 18.9459 3.5504 -9.1118 8.1333 0.0000 0.0000 0.0000 -90.9252 13.6255 32.9994 17.2806 -27.2262 -4.2149 -0.0000 -0.0000 6.4965 14.7581 -10.2206 -2.6762 -7.1250 0.0000 -0.0000 -8.6958 19.4806 5.3597 0.0000 0.0000 0.0000 89.4219 -12.8729 38.9155 -19.2726 29.7560 -5.1654 0.0000 0.0000 24.7636 14.5636 -22.7394 -5.7346 7.1250 -0.0000 -0.0000 41.1355 -48.1668 -3.8293
-0.4426 17.5152 7.7767 -6.7047 -3.3908 7.9962 0.0000 0.0000 0.0000 -21.8822 -36.2761 23.2035 0.0545 -1.5059 -4.1420 -5.5869 40.5914 -34.7889 0.0688 1.6925 4.6566 0.0000 0.0000 0.0000 26.1028 23.5545 7.0723 -0.0073 -0.5535 1.5209 0.3396 -15.2266 -17.5726 -0.0004 0.1282 -0.3522 3.8282 0.7476 -0.1913 1.5430 1.3429 -9.9108 -0.6030 0.4027 -10.3764 -12.3854 -12.5877 -1.1948 9.8222 -18.4984 18.9666 3.5602 -9.1055 8.1430 -0.0000 0.0000 0.0000 -91.0269 13.3574 32.7376 16.8746 -26.6922 -4.0309 -0.0000 -0.0000 7.9461 14.8056 -10.4203 -2.7370 -7.1250 0.0000 -0.0000 -8.6580 19.2743 5.3762 -0.0000 0.0000 0.0000 89.5420 -12.7126 38.6012 -19.1081 29.5527 -5.0840 0.0000 0.0000 25.1275 14.5749 -22.7285 -5.7367 7.1250 -0.0000 -0.0000 41.1374 -48.1564 -3.8173
-0.4433 17.5145 7.7778 -6.7170 -3.4210 8.0326 0.0000 0.0000 0.0000 -21.8718 -36.3090 23.2025 0.0546 -1.5077 -4.1469 -5.5893 40.6205 -34.8704 0.0708 1.7162 4.7221 0.0000 0.0000 0.0000 26.0931 23.5494 7.0068 -0.0076 -0.5629 1.5469 0.3336 -15.1736 -17.5620 -0.0005 0.1398 -0.3840 3.8408 0.7680 -0.2258 1.5398 1.3695 -9.9290 -0.6153 0.4143 -10.3752 -12.3830 -12.5799 -1.1858 9.8500 -18.4966 18.9836 3.5696 -9.1027 8.1494 0.0000 0.0000 0.0000 -91.1233 13.1033 32.3813 16.4420 -26.1163 -3.8385 -0.0000 -0.0000 9.4411 14.8415 -10.5993 -2.7905 -7.1250 0.0000 -0.0000 -8.6292 19.0897 5.3937 0.0000 0.0000 0.0000 89.6740 -12.5634 38.1794 -18.9060 29.3018 -4.9848 0.0000 0.0000 25.5618 14.5589 -22.7254 -5.7294 7.1250 -0.0000 -0.0000 41.1224 -48.1563 -3.8152
